<svg width="16" height="16" viewBox="0 0 16 16" fill="none" xmlns="http://www.w3.org/2000/svg">
<g id="headset">
<path id="vector" d="M14 8.2655V8C13.9583 6.302 13.3723 4.888 12.242 3.758C11.1117 2.628 9.69767 2.042 8 2C6.302 2.04167 4.888 2.62767 3.758 3.758C2.628 4.88833 2.042 6.30233 2 8V8.2655C2.31267 8.0885 2.646 8 3 8C3.354 8 3.68733 8.09117 4 8.2735C4.31267 8.45583 4.5575 8.698 4.7345 9C4.9115 9.302 5 9.63533 5 10V12C4.98967 12.5627 4.79433 13.034 4.414 13.414C4.03367 13.794 3.56233 13.9893 3 14C2.43733 13.9897 1.966 13.7943 1.586 13.414C1.206 13.0337 1.01067 12.5623 1 12V8C1.052 6.02067 1.73683 4.37217 3.0545 3.0545C4.37217 1.73683 6.02067 1.052 8 1C9.97933 1.052 11.6278 1.73683 12.9455 3.0545C14.2632 4.37217 14.948 6.02067 15 8V12C14.9897 12.5627 14.7943 13.034 14.414 13.414C14.0337 13.794 13.5623 13.9893 13 14C12.4373 13.9897 11.966 13.7943 11.586 13.414C11.206 13.0337 11.0107 12.5623 11 12V10C11 9.63533 11.0885 9.302 11.2655 9C11.4425 8.698 11.6873 8.45583 12 8.2735C12.3127 8.09117 12.646 8 13 8C13.354 8 13.6873 8.0885 14 8.2655ZM14 10C13.9897 9.71867 13.8907 9.48433 13.703 9.297C13.5153 9.10967 13.281 9.01583 13 9.0155C12.719 9.01517 12.4847 9.109 12.297 9.297C12.1093 9.485 12.0103 9.71933 12 10V12C12.0103 12.2813 12.1093 12.5157 12.297 12.703C12.4847 12.8903 12.719 12.9842 13 12.9845C13.281 12.9848 13.5153 12.891 13.703 12.703C13.8907 12.515 13.9897 12.2807 14 12V10ZM2 10V12C2.01033 12.2813 2.10933 12.5157 2.297 12.703C2.48467 12.8903 2.719 12.9842 3 12.9845C3.281 12.9848 3.51533 12.891 3.703 12.703C3.89067 12.515 3.98967 12.2807 4 12V10C3.98967 9.71867 3.89067 9.48433 3.703 9.297C3.51533 9.10967 3.281 9.01583 3 9.0155C2.719 9.01517 2.48467 9.109 2.297 9.297C2.10933 9.485 2.01033 9.71933 2 10Z" fill="#08080A" fill-opacity="0.96"/>
</g>
</svg>
