<svg width="27" height="27" viewBox="0 0 27 27" fill="none" xmlns="http://www.w3.org/2000/svg">
<g id="&#240;&#159;&#166;&#134; icon &#34;camera outline&#34;">
<g id="Group">
<path id="Vector" d="M21.375 7.875H18V6.1875C18 5.44158 17.7037 4.72621 17.1762 4.19876C16.6488 3.67132 15.9334 3.375 15.1875 3.375L11.8125 3.375C11.0666 3.375 10.3512 3.67132 9.82376 4.19876C9.29632 4.72621 9 5.44158 9 6.1875V7.875H5.625C4.72989 7.875 3.87145 8.23058 3.23851 8.86351C2.60558 9.49645 2.25 10.3549 2.25 11.25L2.25 20.25C2.25 21.1451 2.60558 22.0036 3.23851 22.6365C3.87145 23.2694 4.72989 23.625 5.625 23.625H21.375C22.2701 23.625 23.1286 23.2694 23.7615 22.6365C24.3944 22.0036 24.75 21.1451 24.75 20.25V11.25C24.75 10.3549 24.3944 9.49645 23.7615 8.86351C23.1286 8.23058 22.2701 7.875 21.375 7.875ZM11.25 6.1875C11.25 6.03832 11.3093 5.89524 11.4148 5.78975C11.5202 5.68426 11.6633 5.625 11.8125 5.625L15.1875 5.625C15.3367 5.625 15.4798 5.68426 15.5852 5.78975C15.6907 5.89524 15.75 6.03832 15.75 6.1875V7.875H11.25V6.1875ZM22.5 20.25C22.5 20.5484 22.3815 20.8345 22.1705 21.0455C21.9595 21.2565 21.6734 21.375 21.375 21.375H5.625C5.32663 21.375 5.04048 21.2565 4.8295 21.0455C4.61853 20.8345 4.5 20.5484 4.5 20.25L4.5 11.25C4.5 10.9516 4.61853 10.6655 4.8295 10.4545C5.04048 10.2435 5.32663 10.125 5.625 10.125H21.375C21.6734 10.125 21.9595 10.2435 22.1705 10.4545C22.3815 10.6655 22.5 10.9516 22.5 11.25V20.25Z" fill="black" fill-opacity="0.55"/>
<path id="Vector_2" d="M13.5 11.8125C12.7212 11.8125 11.96 12.0434 11.3124 12.4761C10.6649 12.9087 10.1602 13.5237 9.86223 14.2432C9.56421 14.9627 9.48623 15.7544 9.63816 16.5182C9.79009 17.282 10.1651 17.9836 10.7158 18.5342C11.2664 19.0849 11.968 19.4599 12.7318 19.6118C13.4956 19.7638 14.2873 19.6858 15.0068 19.3878C15.7263 19.0898 16.3413 18.5851 16.7739 17.9376C17.2066 17.29 17.4375 16.5288 17.4375 15.75C17.4375 14.7057 17.0227 13.7042 16.2842 12.9658C15.5458 12.2273 14.5443 11.8125 13.5 11.8125ZM13.5 17.4375C13.1662 17.4375 12.84 17.3385 12.5625 17.1531C12.285 16.9677 12.0687 16.7041 11.941 16.3958C11.8132 16.0874 11.7798 15.7481 11.8449 15.4208C11.91 15.0934 12.0708 14.7928 12.3068 14.5568C12.5428 14.3208 12.8434 14.16 13.1708 14.0949C13.4981 14.0298 13.8374 14.0632 14.1458 14.191C14.4541 14.3187 14.7177 14.535 14.9031 14.8125C15.0885 15.09 15.1875 15.4162 15.1875 15.75C15.1875 16.1976 15.0097 16.6268 14.6932 16.9432C14.3768 17.2597 13.9476 17.4375 13.5 17.4375Z" fill="black" fill-opacity="0.55"/>
</g>
</g>
</svg>
