<svg width="23" height="25" viewBox="0 0 23 25" fill="none" xmlns="http://www.w3.org/2000/svg">
<g id="&#240;&#159;&#166;&#134; icon &#34;email outline&#34;">
<path id="Vector" d="M18.0724 7L4.83631 7C4.08407 7 3.36265 7.32149 2.83074 7.89373C2.29882 8.46598 2 9.24211 2 10.0514L2 20.2227C2 21.032 2.29882 21.8081 2.83074 22.3804C3.36265 22.9526 4.08407 23.2741 4.83631 23.2741H18.0724C18.8246 23.2741 19.5461 22.9526 20.078 22.3804C20.6099 21.8081 20.9087 21.032 20.9087 20.2227V10.0514C20.9087 9.24211 20.6099 8.46598 20.078 7.89373C19.5461 7.32149 18.8246 7 18.0724 7ZM17.439 9.03426L11.4544 13.8656L5.46975 9.03426H17.439ZM18.0724 21.2398H4.83631C4.58556 21.2398 4.34509 21.1327 4.16778 20.9419C3.99048 20.7512 3.89087 20.4925 3.89087 20.2227L3.89087 10.3057L10.8871 15.9507C11.0507 16.0828 11.2498 16.1542 11.4544 16.1542C11.6589 16.1542 11.858 16.0828 12.0216 15.9507L19.0178 10.3057V20.2227C19.0178 20.4925 18.9182 20.7512 18.7409 20.9419C18.5636 21.1327 18.3232 21.2398 18.0724 21.2398Z" fill="black" fill-opacity="0.55"/>
</g>
</svg>
